<?xml version="1.0" encoding="UTF-8" standalone="no"?>
<!-- Created with Inkscape (http://www.inkscape.org/) -->

<svg
   width="210mm"
   height="297mm"
   viewBox="0 0 210 297"
   version="1.1"
   id="svg5"
   inkscape:version="1.2.2 (b0a8486541, 2022-12-01)"
   sodipodi:docname="Logo.svg"
   xml:space="preserve"
   xmlns:inkscape="http://www.inkscape.org/namespaces/inkscape"
   xmlns:sodipodi="http://sodipodi.sourceforge.net/DTD/sodipodi-0.dtd"
   xmlns="http://www.w3.org/2000/svg"
   xmlns:svg="http://www.w3.org/2000/svg"><sodipodi:namedview
     id="namedview7"
     pagecolor="#ffffff"
     bordercolor="#666666"
     borderopacity="1.0"
     inkscape:pageshadow="2"
     inkscape:pageopacity="0.0"
     inkscape:pagecheckerboard="0"
     inkscape:document-units="mm"
     showgrid="false"
     inkscape:zoom="1"
     inkscape:cx="282"
     inkscape:cy="605"
     inkscape:window-width="1920"
     inkscape:window-height="1126"
     inkscape:window-x="0"
     inkscape:window-y="0"
     inkscape:window-maximized="1"
     inkscape:current-layer="layer1"
     inkscape:showpageshadow="2"
     inkscape:deskcolor="#d1d1d1" /><defs
     id="defs2"><clipPath
       id="clipPath18"
       clipPathUnits="userSpaceOnUse"><path
         id="path16"
         d="M 0,283.465 H 283.465 V 0 H 0 Z" /></clipPath></defs><g
     inkscape:label="Слой 1"
     inkscape:groupmode="layer"
     id="layer1"><path
       d="m 122.15742,141.47014 h -3.07976 v -2.31748 c 0,-0.43189 -0.25766,-0.82207 -0.65495,-0.99169 -6.50426,-2.77654 -14.50664,-1.59978 -21.064332,3.0514 -6.557578,-4.65118 -14.560193,-5.82761 -21.064217,-3.0514 -0.397289,0.16962 -0.654958,0.5598 -0.654958,0.99169 v 2.31748 h -3.079758 c -0.595387,0 -1.0782,0.4827 -1.0782,1.0782 v 29.80228 c 0,0.59549 0.482813,1.0782 1.0782,1.0782 h 24.799042 24.798933 c 0.59549,0 1.0782,-0.48282 1.0782,-1.0782 v -29.80217 c 0,-0.5955 -0.48271,-1.07831 -1.0782,-1.07831 z m -48.519775,29.80228 v -27.64577 h 2.001558 v 25.32828 c 0,0.36226 0.18189,0.70008 0.484018,0.89971 0.302238,0.19952 0.684306,0.23391 1.017424,0.0919 5.050436,-2.15595 11.149505,-1.61675 16.562849,1.32591 z m 22.64264,-0.98337 c -3.935229,-2.5077 -8.312742,-3.80973 -12.538265,-3.80973 -2.039995,0 -4.044291,0.30344 -5.946307,0.92128 v -24.83966 c 0,-0.005 6.62e-4,-0.008 6.62e-4,-0.0125 0,-0.005 -5.38e-4,-0.008 -6.62e-4,-0.0125 v -2.654 c 5.750948,-2.15552 12.724317,-0.95007 18.484572,3.21018 z m 2.156395,-27.1969 c 5.76016,-4.16037 12.73397,-5.36571 18.48458,-3.21018 v 2.65389 c 0,0.005 -7.3e-4,0.008 -7.3e-4,0.0125 0,0.005 4.2e-4,0.008 7.3e-4,0.0125 v 24.83955 c -5.84195,-1.89764 -12.64963,-0.82963 -18.48458,2.88856 z m 22.64254,28.18027 h -20.06596 c 5.41346,-2.94266 11.51242,-3.48176 16.56297,-1.32591 0.33311,0.14237 0.71551,0.10776 1.01742,-0.0919 0.30223,-0.19963 0.48401,-0.53756 0.48401,-0.89971 v -25.32828 h 2.00156 z"
       id="path484"
       style="stroke-width:1.31;stroke-dasharray:none;stroke:#000000;stroke-opacity:1" /><path
       d="m 152.09068,126.00235 c -0.64686,-0.44227 -1.39353,-0.67609 -2.15913,-0.67609 -0.7658,0 -1.51247,0.23382 -2.15951,0.67645 l -14.26267,9.75637 v -4.59437 c 0,-5.42063 -4.41018,-9.83062 -9.83081,-9.83062 H 69.586412 c -5.420629,0 -9.830807,4.40999 -9.830807,9.83062 v 46.50558 c 0,5.42081 4.410178,9.83099 9.830807,9.83099 h 54.092148 c 5.42063,0 9.83081,-4.41018 9.83081,-9.83099 v -6.59082 l 14.26396,9.75746 c 0.64667,0.44172 1.39298,0.67535 2.15822,0.67535 0.76523,0 1.51172,-0.23363 2.16004,-0.67663 1.11413,-0.7623 1.77919,-2.0527 1.77919,-3.45138 v -47.93018 c 0,-1.39867 -0.66506,-2.68871 -1.7801,-3.45174 z m -4.1021,47.85499 -15.75969,-10.7806 c -0.90054,-0.61598 -2.06778,-0.6827 -3.03283,-0.17371 -0.96486,0.50918 -1.56871,1.51044 -1.56871,2.60122 v 12.16622 c 0,2.17752 -1.77146,3.9488 -3.94861,3.9488 H 69.586412 c -2.177148,-1.9e-4 -3.948609,-1.77146 -3.948609,-3.94898 v -46.50558 c 0,-2.17733 1.771461,-3.94842 3.948609,-3.94842 h 54.092148 c 2.17733,0 3.94861,1.77127 3.94861,3.94842 v 10.16958 c 0,1.09097 0.60384,2.09242 1.56889,2.60141 0.9645,0.50881 2.13229,0.44226 3.03283,-0.17389 l 15.75969,-10.7806 z"
       id="path513"
       style="stroke-width:1.984;stroke:#000000;stroke-opacity:1;stroke-dasharray:none" /></g></svg>
